:SAMPLES-PER-SECOND 30
:FULLY-SPECIFIED
:DEGREES
330
root  35.14099722 36.50221637 -14.89487746 9.087614059 1.914902806 3.163376331
lowerback  -9.30618 0.5838300586 0.4484725893
upperback  -3.635689974 0.4197340012 -3.121089935
thorax  1.472579956 0.0237242002 -3.445689917
lowerneck  -16.29590034 -1.613919973 -1.137069941
upperneck  20.96500015 -3.657409668 4.722879887
head  9.419770241 -1.498870015 1.310670018
lclavicle  0 -4.497500157e-015 -2.743230041e-014
lhumerus  -45.6167984 28.26420021 68.07150269
lradius  -0.3109548986 -6.507048965e-006 27.99670029
lwrist  4.824992743e-007 -3.790274832e-007 -30.64940071
lhand  -0 -36.74140167 -10.61260033
lfingers  90 7.125020027 -90
lthumb  94.72866131 -25.45513616 100.893747
rclavicle  0 -4.497500157e-015 -2.743230041e-014
rhumerus  -27.89559937 3.139440298 -73.82830048
rradius  -5.16745672e-007 2.214343908e-008 107.4339981
rwrist  -3.062178075e-005 0.01194404531 -178.7539978
rhand  -1.773972787e-031 5.581369877 -7.289599895
rfingers  -90 -7.125020027 -90
rthumb  -84.66738218 -8.818441597 -58.66421958
rfemur  -12.22092056 14.53527069 13.58582878
rtibia  -1.101752639 1.009531617 21.33805466
rfoot  -0.8305944204 -18.42916489 -40.33657837
rtoes  4.023006265 19.60745799 -101.836841
lfemur  -10.35329723 -19.3866806 -18.60225105
ltibia  1.298578978 0.5221022964 16.43555069
lfoot  0.4788749218 -27.43544197 34.80258942
ltoes  -8.521949191 -18.16118268 -115.6754873
331
root  35.14085304 36.50214128 -14.89766639 9.095079422 1.79169476 3.170783758
lowerback  -9.221579552 0.5312260389 0.4109195471
upperback  -3.660979986 0.3515529931 -3.043540001
thorax  1.394930005 -0.009736509994 -3.350219965
lowerneck  -16.2567997 -1.61164999 -1.258730054
upperneck  21.01759911 -3.632439852 4.731319904
head  9.431940079 -1.498090029 1.337320089
lclavicle  0 -4.497500157e-015 -2.743230041e-014
lhumerus  -45.73180008 28.35210037 68.03170013
lradius  -0.3124946356 -6.507048965e-006 28.04739952
lwrist  4.824992743e-007 -3.790274832e-007 -30.81159973
lhand  -4.409350951e-031 -36.79090118 -10.59700012
lfingers  90 7.125020027 -90
lthumb  94.74855233 -25.43812581 100.9453354
rclavicle  0 -4.497500157e-015 -2.743230041e-014
rhumerus  -29.01930046 2.71020031 -74.06559753
rradius  -5.16745672e-007 2.214343908e-008 107.2330017
rwrist  -3.062178075e-005 0.01194404531 -178.423996
rhand  -1.773667807e-031 5.479629993 -7.469979763
rfingers  -90 -7.125020027 -90
rthumb  -84.78660565 -8.657537158 -58.77780028
rfemur  -12.25655842 14.56457806 13.54728889
rtibia  -1.103029132 0.9622721672 21.34239769
rfoot  -0.8531850576 -18.51194954 -40.34047318
rtoes  4.019132651 19.60822237 -101.825298
lfemur  -10.37168694 -19.2689743 -18.61650085
ltibia  1.283269644 0.5180842876 16.45121765
lfoot  0.4723794162 -27.44327927 34.78557587
ltoes  -8.56908534 -18.13957707 -115.8268012
332
root  35.13975068 36.50133629 -14.90105907 9.087162971 1.676320553 3.177459717
lowerback  -9.191659927 0.4946340919 0.499384582
upperback  -3.669739962 0.2940239906 -3.053260088
thorax  1.366420031 -0.03982640058 -3.416270018
lowerneck  -16.19099998 -1.599900007 -1.275169969
upperneck  21.01619911 -3.62658 4.767549992
head  9.420069695 -1.496140003 1.353399873
lclavicle  0 -4.497500157e-015 -2.743230041e-014
lhumerus  -45.6957016 28.23789978 68.04740143
lradius  -0.3140301406 -6.507048965e-006 28.07559776
lwrist  4.824992743e-007 -3.790274832e-007 -30.66670036
lhand  -4.406155244e-031 -36.73529816 -10.62880039
lfingers  90 7.125020027 -90
lthumb  94.72919349 -25.47123695 100.8886753
rclavicle  0 -4.497500157e-015 -2.743230041e-014
rhumerus  -30.10969925 2.079919815 -74.51339722
rradius  -5.16745672e-007 2.214343908e-008 106.8769989
rwrist  -3.062178075e-005 0.01194404531 -178.2299957
rhand  -1.773999677e-031 5.590250015 -7.348499775
rfingers  -90 -7.125020027 -90
rthumb  -84.69622623 -8.768715571 -58.66026416
rfemur  -12.29149723 14.57553196 13.52240372
rtibia  -1.107808113 0.9136849642 21.37550354
rfoot  -0.8609831333 -18.61702728 -40.2684288
rtoes  4.007831029 19.61044811 -101.7916226
lfemur  -10.33513641 -19.17379379 -18.64259911
ltibia  1.293814063 0.5317084193 16.41101265
lfoot  0.4825941324 -27.46073914 34.83295441
ltoes  -8.56872881 -18.13974105 -115.8256561
333
root  35.13842605 36.50632543 -14.90533033 9.076618195 1.576982021 3.190246105
lowerback  -9.181240082 0.4592570066 0.5935101509
upperback  -3.66189003 0.2393790036 -3.073659897
thorax  1.365869999 -0.0677973032 -3.496510029
lowerneck  -16.1697998 -1.610120058 -1.246279955
upperneck  21.03560066 -3.655580044 4.767970085
head  9.423529625 -1.509589911 1.344810128
lclavicle  0 -4.497500157e-015 -2.743230041e-014
lhumerus  -45.62630081 28.13479996 68.06999969
lradius  -0.3155611455 -6.507048965e-006 28.12400246
lwrist  4.824992743e-007 -3.790274832e-007 -30.46350098
lhand  -4.40590283e-031 -36.73089981 -10.68789959
lfingers  90 7.125020027 -90
lthumb  94.73950072 -25.52942615 100.8892902
rclavicle  0 -4.497500157e-015 -2.743230041e-014
rhumerus  -31.15629959 1.412979245 -74.96150208
rradius  -5.16745672e-007 2.214343908e-008 106.5739975
rwrist  -3.062178075e-005 0.01194404531 -177.4980011
rhand  -1.774297528e-031 5.687670231 -7.568950176
rfingers  -90 -7.125020027 -90
rthumb  -84.7888736 -8.587147255 -58.58279321
rfemur  -12.32824612 14.67220592 13.50501728
rtibia  -1.11744678 0.9190263152 21.43314552
rfoot  -0.8780079484 -18.6219883 -40.260746
rtoes  4.028300588 19.60641202 -101.8526183
lfemur  -10.26999378 -19.09375763 -18.68584061
ltibia  1.329060316 0.5493826866 16.33564186
lfoot  0.5080707073 -27.4677887 34.91583633
ltoes  -8.519483323 -18.16230886 -115.6675763
